# xmcd CD database file
#
# Track frame offsets:
#	150
#	15695
#	29866
#	45301
#	56896
#	73809
#	86762
#	99624
#	112051
#	121979
#	152161
#	164615
#	183363
#	203434
#
# Disc length: 2899 seconds
#
# Revision: 0
# Processed by: cddbd v1.5.1PL0 Copyright (c) Steve Scherf et al.
# Submitted via: CDex 1.51
#
DISCID=c60b510e
DTITLE=Brian Evans - Maybe This Time
DYEAR=2000
DGENRE=Jazz
TTITLE0=Beyond The Sea
TTITLE1=Learnin' The Blues
TTITLE2=Smile
TTITLE3=Nice n' Easy
TTITLE4=I've Got You Under My Skin
TTITLE5=The Tender Trap
TTITLE6=Love And Marriage
TTITLE7=Summerwind
TTITLE8=Young At Heart
TTITLE9=Summertime
TTITLE10=I Love Ya
TTITLE11=Mack The Knife
TTITLE12=Sentimental Journey
TTITLE13=Maybe This Time
EXTD=YEAR: 2000
EXTT0=
EXTT1=
EXTT2=
EXTT3=
EXTT4=
EXTT5=
EXTT6=
EXTT7=
EXTT8=
EXTT9=
EXTT10=
EXTT11=
EXTT12=
EXTT13=
PLAYORDER=
